<svg width="192" height="192" viewBox="0 0 192 192" fill="none" xmlns="http://www.w3.org/2000/svg">
<rect width="192" height="192" fill="#81B3D3"/>
<path d="M64.3386 118.461C64.474 118.594 64.5426 118.725 64.5426 118.858C64.6798 118.858 64.8153 118.923 64.9507 119.055C68.6268 123.012 72.7814 126.707 77.4109 130.138C82.0403 133.435 87.3523 135.216 93.3432 135.48C93.4803 135.48 93.6158 135.548 93.7512 135.679H94.3651C94.5005 135.679 94.6377 135.744 94.7732 135.877H97.0193C97.7018 135.744 98.3139 135.613 98.8591 135.48C101.042 135.083 103.124 134.277 104.987 133.106C107.028 131.918 108.595 130.466 109.684 128.752L110.093 127.96L110.501 127.169C110.774 126.245 110.978 125.388 111.115 124.596C111.251 123.805 111.319 123.079 111.319 122.419C111.319 118.858 109.684 115.889 106.417 113.514C103.372 111.055 99.918 109.114 96.2032 107.774C94.806 107.274 93.372 106.878 91.9132 106.588C90.6325 106.212 89.3383 105.882 88.033 105.598H87.6249C87.4877 105.467 87.3523 105.4 87.2168 105.4C80.5935 103.836 74.2561 101.3 68.4246 97.8797C62.5674 94.318 58.5518 89.2379 56.3725 82.6412C55.9457 81.2608 55.537 79.8752 55.1465 78.4848C54.8669 76.9785 54.6626 75.46 54.5344 73.9347C54.4089 73.4819 54.3404 73.0162 54.3303 72.5475V67.798C54.4658 66.7432 54.6698 65.6883 54.9425 64.6317C55.3653 61.9369 56.049 59.2866 56.9846 56.7159C57.9379 54.0779 59.1639 51.7023 60.6607 49.5926C65.0193 42.5988 70.6021 37.5852 77.4109 34.5518C84.3568 31.5167 91.5737 30 99.0632 30C100.834 30 102.604 30.1312 104.375 30.3954C106.288 30.5278 108.195 30.7256 110.093 30.9884C115.061 31.7979 119.923 33.1252 124.596 34.9471C129.498 36.7944 133.992 38.9706 138.078 41.4774L126.844 65.8195C123.177 63.1875 119.281 60.8702 115.199 58.8939C111.115 56.9136 106.69 55.9252 101.923 55.9252H100.287C97.1565 56.3206 94.2296 57.7061 91.5051 60.0799C88.7823 62.3226 87.4209 64.7646 87.4209 67.4027V68.5905C87.5563 68.9858 87.7603 69.3812 88.033 69.7783C88.3056 70.7019 88.7823 71.5591 89.463 72.3515C90.1437 73.1422 90.893 73.8682 91.7091 74.5277C93.2077 75.7155 95.3853 76.8368 98.247 77.8917C101.105 78.8154 104.102 79.739 107.235 80.6627C109.821 81.3222 112.339 81.9817 114.791 82.6412C117.243 83.1695 119.285 83.6977 120.919 84.226C128.544 86.8641 134.264 91.2829 138.078 97.4843C141.889 103.553 143.865 110.018 144 116.878V117.868C144 118.66 143.933 119.453 143.796 120.243V122.419C142.98 129.28 140.665 135.811 136.852 142.012C133.176 148.213 128.205 152.963 121.941 156.262C119.616 157.321 117.229 158.246 114.791 159.031C112.357 159.687 109.905 160.282 107.439 160.814C105.416 161.207 103.369 161.471 101.311 161.605C99.3476 161.863 97.3685 161.995 95.387 162H93.1391C84.9689 161.738 76.936 160.021 69.0367 156.853C61.1391 153.556 54.1263 149.202 48 143.793L64.3386 118.461Z" fill="white"/>
</svg>
