<svg width="512" height="512" viewBox="0 0 512 512" fill="none" xmlns="http://www.w3.org/2000/svg">
<rect width="512" height="512" fill="#81B3D3"/>
<path d="M176.013 314.462C176.355 314.808 176.529 315.15 176.529 315.496C176.875 315.496 177.217 315.664 177.56 316.01C186.847 326.31 197.342 335.927 209.038 344.856C220.733 353.439 234.153 358.074 249.288 358.761C249.635 358.761 249.977 358.939 250.319 359.28H251.87C252.212 359.28 252.558 359.449 252.901 359.795H258.575C260.299 359.449 261.846 359.107 263.223 358.761C268.737 357.728 273.996 355.629 278.704 352.582C283.859 349.491 287.818 345.712 290.569 341.249L291.604 339.187L292.635 337.129C293.324 334.724 293.839 332.493 294.186 330.431C294.528 328.373 294.701 326.483 294.701 324.766C294.701 315.496 290.569 307.769 282.317 301.586C274.623 295.186 265.898 290.135 256.513 286.646C252.984 285.346 249.361 284.314 245.675 283.559C242.44 282.582 239.17 281.722 235.873 280.982H234.842C234.495 280.64 234.153 280.467 233.811 280.467C217.078 276.397 201.068 269.796 186.336 260.893C171.539 251.622 161.394 238.399 155.888 221.229C154.81 217.636 153.778 214.029 152.791 210.41C152.085 206.489 151.569 202.537 151.245 198.567C150.928 197.388 150.755 196.176 150.729 194.956V182.594C151.071 179.848 151.587 177.103 152.276 174.352C153.344 167.338 155.071 160.44 157.435 153.749C159.843 146.882 162.94 140.699 166.722 135.208C177.733 117.004 191.837 103.954 209.038 96.0582C226.586 88.1583 244.818 84.2105 263.738 84.2105C268.213 84.2105 272.683 84.5521 277.158 85.2396C281.99 85.5842 286.809 86.0991 291.604 86.7832C304.153 88.8903 316.437 92.345 328.242 97.0873C340.626 101.896 351.979 107.56 362.302 114.085L333.92 177.444C324.658 170.593 314.816 164.562 304.504 159.417C294.186 154.263 283.006 151.691 270.964 151.691H266.831C258.922 152.72 251.528 156.326 244.644 162.505C237.766 168.342 234.326 174.698 234.326 181.565V184.657C234.669 185.686 235.184 186.715 235.873 187.748C236.562 190.152 237.766 192.383 239.485 194.446C241.205 196.504 243.098 198.394 245.16 200.11C248.946 203.202 254.447 206.121 261.677 208.866C268.897 211.271 276.469 213.675 284.383 216.079C290.915 217.795 297.279 219.512 303.473 221.229C309.667 222.604 314.826 223.979 318.954 225.354C338.217 232.22 352.668 243.722 362.302 259.863C371.931 275.659 376.921 292.488 377.263 310.342V312.919C377.263 314.981 377.094 317.044 376.748 319.102V324.766C374.686 342.624 368.838 359.622 359.204 375.763C349.917 391.905 337.36 404.267 321.536 412.855C315.663 415.61 309.631 418.017 303.473 420.063C297.323 421.77 291.13 423.317 284.899 424.702C279.789 425.725 274.617 426.412 269.417 426.76C264.457 427.433 259.457 427.777 254.451 427.789H248.772C228.132 427.106 207.838 422.64 187.882 414.394C167.93 405.811 150.214 394.478 134.737 380.399L176.013 314.462Z" fill="white"/>
</svg>
